<svg xmlns="http://www.w3.org/2000/svg" width="131.25" viewBox="0 0 131.25 30" height="30" version="1.0"><g fill="#FFF"><g><g><path d="M 11.09375 -15.90625 C 9.800781 -15.90625 8.796875 -15.375 8.078125 -14.3125 C 7.359375 -13.257812 7 -11.800781 7 -9.9375 C 7 -6.082031 8.46875 -4.15625 11.40625 -4.15625 C 12.289062 -4.15625 13.148438 -4.273438 13.984375 -4.515625 C 14.816406 -4.765625 15.648438 -5.066406 16.484375 -5.421875 L 16.484375 -0.84375 C 14.816406 -0.09375 12.925781 0.28125 10.8125 0.28125 C 7.78125 0.28125 5.457031 -0.597656 3.84375 -2.359375 C 2.226562 -4.117188 1.421875 -6.65625 1.421875 -9.96875 C 1.421875 -12.050781 1.8125 -13.878906 2.59375 -15.453125 C 3.375 -17.023438 4.5 -18.234375 5.96875 -19.078125 C 7.4375 -19.921875 9.164062 -20.34375 11.15625 -20.34375 C 13.320312 -20.34375 15.390625 -19.875 17.359375 -18.9375 L 15.703125 -14.671875 C 14.960938 -15.015625 14.222656 -15.304688 13.484375 -15.546875 C 12.742188 -15.785156 11.945312 -15.90625 11.09375 -15.90625 Z M 11.09375 -15.90625" transform="translate(1.92 20.41)"/></g></g></g><g fill="#FFF"><g><g><path d="M 15.28125 -6.09375 C 15.28125 -4.84375 14.960938 -3.734375 14.328125 -2.765625 C 13.703125 -1.804688 12.796875 -1.054688 11.609375 -0.515625 C 10.421875 0.015625 9.023438 0.28125 7.421875 0.28125 C 6.085938 0.28125 4.96875 0.1875 4.0625 0 C 3.15625 -0.1875 2.210938 -0.515625 1.234375 -0.984375 L 1.234375 -5.8125 C 2.265625 -5.28125 3.335938 -4.863281 4.453125 -4.5625 C 5.566406 -4.269531 6.59375 -4.125 7.53125 -4.125 C 8.332031 -4.125 8.921875 -4.265625 9.296875 -4.546875 C 9.671875 -4.828125 9.859375 -5.1875 9.859375 -5.625 C 9.859375 -5.894531 9.78125 -6.132812 9.625 -6.34375 C 9.476562 -6.550781 9.238281 -6.757812 8.90625 -6.96875 C 8.570312 -7.175781 7.679688 -7.609375 6.234375 -8.265625 C 4.929688 -8.859375 3.953125 -9.429688 3.296875 -9.984375 C 2.640625 -10.546875 2.15625 -11.1875 1.84375 -11.90625 C 1.53125 -12.625 1.375 -13.476562 1.375 -14.46875 C 1.375 -16.320312 2.046875 -17.765625 3.390625 -18.796875 C 4.734375 -19.828125 6.582031 -20.34375 8.9375 -20.34375 C 11.007812 -20.34375 13.125 -19.863281 15.28125 -18.90625 L 13.625 -14.71875 C 11.75 -15.582031 10.128906 -16.015625 8.765625 -16.015625 C 8.054688 -16.015625 7.539062 -15.890625 7.21875 -15.640625 C 6.90625 -15.390625 6.75 -15.082031 6.75 -14.71875 C 6.75 -14.320312 6.953125 -13.96875 7.359375 -13.65625 C 7.765625 -13.351562 8.867188 -12.789062 10.671875 -11.96875 C 12.398438 -11.1875 13.597656 -10.347656 14.265625 -9.453125 C 14.941406 -8.566406 15.28125 -7.445312 15.28125 -6.09375 Z M 15.28125 -6.09375" transform="translate(20.126 20.41)"/></g></g></g><g fill="#FFF"><g><g><path d="M 15.28125 -6.09375 C 15.28125 -4.84375 14.960938 -3.734375 14.328125 -2.765625 C 13.703125 -1.804688 12.796875 -1.054688 11.609375 -0.515625 C 10.421875 0.015625 9.023438 0.28125 7.421875 0.28125 C 6.085938 0.28125 4.96875 0.1875 4.0625 0 C 3.15625 -0.1875 2.210938 -0.515625 1.234375 -0.984375 L 1.234375 -5.8125 C 2.265625 -5.28125 3.335938 -4.863281 4.453125 -4.5625 C 5.566406 -4.269531 6.59375 -4.125 7.53125 -4.125 C 8.332031 -4.125 8.921875 -4.265625 9.296875 -4.546875 C 9.671875 -4.828125 9.859375 -5.1875 9.859375 -5.625 C 9.859375 -5.894531 9.78125 -6.132812 9.625 -6.34375 C 9.476562 -6.550781 9.238281 -6.757812 8.90625 -6.96875 C 8.570312 -7.175781 7.679688 -7.609375 6.234375 -8.265625 C 4.929688 -8.859375 3.953125 -9.429688 3.296875 -9.984375 C 2.640625 -10.546875 2.15625 -11.1875 1.84375 -11.90625 C 1.53125 -12.625 1.375 -13.476562 1.375 -14.46875 C 1.375 -16.320312 2.046875 -17.765625 3.390625 -18.796875 C 4.734375 -19.828125 6.582031 -20.34375 8.9375 -20.34375 C 11.007812 -20.34375 13.125 -19.863281 15.28125 -18.90625 L 13.625 -14.71875 C 11.75 -15.582031 10.128906 -16.015625 8.765625 -16.015625 C 8.054688 -16.015625 7.539062 -15.890625 7.21875 -15.640625 C 6.90625 -15.390625 6.75 -15.082031 6.75 -14.71875 C 6.75 -14.320312 6.953125 -13.96875 7.359375 -13.65625 C 7.765625 -13.351562 8.867188 -12.789062 10.671875 -11.96875 C 12.398438 -11.1875 13.597656 -10.347656 14.265625 -9.453125 C 14.941406 -8.566406 15.28125 -7.445312 15.28125 -6.09375 Z M 15.28125 -6.09375" transform="translate(36.32 20.41)"/></g></g></g><g fill="#FFF"><g><g><path d="M 14.46875 0 L 13.484375 -3.765625 L 6.96875 -3.765625 L 5.953125 0 L 0 0 L 6.546875 -20.140625 L 13.765625 -20.140625 L 20.390625 0 Z M 12.359375 -8.203125 L 11.5 -11.5 C 11.289062 -12.226562 11.039062 -13.171875 10.75 -14.328125 C 10.46875 -15.492188 10.28125 -16.328125 10.1875 -16.828125 C 10.101562 -16.359375 9.941406 -15.585938 9.703125 -14.515625 C 9.460938 -13.453125 8.925781 -11.347656 8.09375 -8.203125 Z M 12.359375 -8.203125" transform="translate(59.8 20.41)"/></g></g></g><g fill="#FFF"><g><g><path d="M 10.90625 0 L 6.796875 -14.4375 L 6.6875 -14.4375 C 6.875 -11.976562 6.96875 -10.066406 6.96875 -8.703125 L 6.96875 0 L 2.171875 0 L 2.171875 -20.0625 L 9.390625 -20.0625 L 13.5625 -5.8125 L 13.671875 -5.8125 L 17.78125 -20.0625 L 25 -20.0625 L 25 0 L 20.03125 0 L 20.03125 -8.796875 C 20.03125 -9.253906 20.035156 -9.757812 20.046875 -10.3125 C 20.054688 -10.875 20.117188 -12.242188 20.234375 -14.421875 L 20.109375 -14.421875 L 16.0625 0 Z M 10.90625 0" transform="translate(80.172 20.41)"/></g></g></g><g fill="#FFF"><g><g><path d="M 19.21875 -20.0625 L 19.21875 -7.984375 C 19.21875 -5.359375 18.472656 -3.320312 16.984375 -1.875 C 15.503906 -0.4375 13.363281 0.28125 10.5625 0.28125 C 7.832031 0.28125 5.734375 -0.414062 4.265625 -1.8125 C 2.796875 -3.21875 2.0625 -5.234375 2.0625 -7.859375 L 2.0625 -20.0625 L 7.5 -20.0625 L 7.5 -8.28125 C 7.5 -6.863281 7.765625 -5.832031 8.296875 -5.1875 C 8.828125 -4.550781 9.609375 -4.234375 10.640625 -4.234375 C 11.753906 -4.234375 12.554688 -4.550781 13.046875 -5.1875 C 13.546875 -5.820312 13.796875 -6.863281 13.796875 -8.3125 L 13.796875 -20.0625 Z M 19.21875 -20.0625" transform="translate(107.298 20.41)"/></g></g></g></svg>